<svg width="85" height="19" viewBox="0 0 85 19" fill="none" xmlns="http://www.w3.org/2000/svg">
<g clip-path="url(#clip0_6468_9593)">
<path d="M74.9631 14.035C74.9631 14.6335 74.8578 15.1766 74.6472 15.6644C74.4477 16.1631 74.1596 16.5899 73.7827 16.9445C73.4059 17.3103 72.9514 17.5929 72.4194 17.7924C71.8874 17.992 71.3 18.0917 70.6571 18.0917C69.9034 18.0917 69.2107 17.9864 68.5789 17.7758C67.9582 17.5652 67.3653 17.1994 66.8 16.6785L67.8141 15.4149C68.2021 15.8362 68.6232 16.152 69.0777 16.3626C69.5321 16.5843 70.0475 16.6951 70.6239 16.6951C71.178 16.6951 71.638 16.612 72.0038 16.4457C72.3695 16.2906 72.6577 16.0855 72.8683 15.8306C73.0899 15.5756 73.2451 15.2819 73.3338 14.9494C73.4225 14.628 73.4668 14.301 73.4668 13.9685V12.8047H73.4169C73.1288 13.2813 72.7353 13.636 72.2366 13.8688C71.7488 14.0905 71.2334 14.2013 70.6904 14.2013C70.114 14.2013 69.5765 14.1015 69.0777 13.902C68.59 13.6914 68.1688 13.4088 67.8141 13.0541C67.4594 12.6883 67.1824 12.2616 66.9829 11.7739C66.7834 11.2751 66.6836 10.7376 66.6836 10.1612C66.6836 9.58482 66.7778 9.04729 66.9663 8.54852C67.1547 8.03865 67.4207 7.59529 67.7643 7.21842C68.119 6.84157 68.5401 6.54785 69.0278 6.33725C69.5266 6.12666 70.0808 6.02136 70.6904 6.02136C71.2223 6.02136 71.7378 6.13775 72.2366 6.37051C72.7464 6.60327 73.1453 6.93024 73.4335 7.35143H73.4668V6.22087H74.9631V14.035ZM70.8732 7.41793C70.4742 7.41793 70.114 7.48998 69.7926 7.63407C69.4712 7.76709 69.1996 7.95551 68.9779 8.19934C68.7563 8.43213 68.5845 8.72032 68.4626 9.06391C68.3406 9.3964 68.2796 9.76221 68.2796 10.1612C68.2796 10.9593 68.5124 11.6021 68.9779 12.0898C69.4434 12.5664 70.0752 12.8047 70.8732 12.8047C71.6713 12.8047 72.303 12.5664 72.7686 12.0898C73.2341 11.6021 73.4668 10.9593 73.4668 10.1612C73.4668 9.76221 73.4059 9.3964 73.284 9.06391C73.162 8.72032 72.9902 8.43213 72.7686 8.19934C72.5469 7.95551 72.2753 7.76709 71.9539 7.63407C71.6324 7.48998 71.2722 7.41793 70.8732 7.41793Z" fill="#1A1C1B"/>
<path d="M58.0758 10.1612C58.0758 10.5602 58.1368 10.9315 58.2587 11.2751C58.3806 11.6076 58.5524 11.8958 58.7741 12.1397C58.9958 12.3724 59.2673 12.5608 59.5887 12.705C59.9102 12.8379 60.2704 12.9044 60.6694 12.9044C61.0684 12.9044 61.4287 12.8379 61.75 12.705C62.0715 12.5608 62.343 12.3724 62.5647 12.1397C62.7864 11.8958 62.9582 11.6076 63.0801 11.2751C63.202 10.9315 63.2629 10.5602 63.2629 10.1612C63.2629 9.76221 63.202 9.3964 63.0801 9.06391C62.9582 8.72032 62.7864 8.43213 62.5647 8.19934C62.343 7.95551 62.0715 7.76709 61.75 7.63407C61.4287 7.48998 61.0684 7.41793 60.6694 7.41793C60.2704 7.41793 59.9102 7.48998 59.5887 7.63407C59.2673 7.76709 58.9958 7.95551 58.7741 8.19934C58.5524 8.43213 58.3806 8.72032 58.2587 9.06391C58.1368 9.3964 58.0758 9.76221 58.0758 10.1612ZM56.4797 10.1612C56.4797 9.58482 56.585 9.04729 56.7957 8.54852C57.0173 8.04969 57.3166 7.61192 57.6934 7.23505C58.0703 6.8582 58.5136 6.56448 59.0234 6.35388C59.5333 6.1322 60.0819 6.02136 60.6694 6.02136C61.2568 6.02136 61.8054 6.1322 62.3153 6.35388C62.8252 6.56448 63.2685 6.8582 63.6454 7.23505C64.0222 7.61192 64.3159 8.04969 64.5265 8.54852C64.7482 9.04729 64.859 9.58482 64.859 10.1612C64.859 10.7376 64.7482 11.2806 64.5265 11.7905C64.3159 12.2893 64.0222 12.7271 63.6454 13.104C63.2685 13.4697 62.8252 13.7634 62.3153 13.9851C61.8054 14.1957 61.2568 14.301 60.6694 14.301C60.0819 14.301 59.5333 14.1957 59.0234 13.9851C58.5136 13.7634 58.0703 13.4697 57.6934 13.104C57.3166 12.7271 57.0173 12.2893 56.7957 11.7905C56.585 11.2806 56.4797 10.7376 56.4797 10.1612Z" fill="#1A1C1B"/>
<path d="M50.6685 6.22087H52.1647V7.43456H52.198C52.2978 7.22397 52.4308 7.03554 52.597 6.86928C52.7633 6.69194 52.9462 6.54231 53.1456 6.42039C53.3563 6.29847 53.5835 6.20425 53.8273 6.13775C54.0711 6.06016 54.315 6.02136 54.5589 6.02136C54.8027 6.02136 55.0244 6.05462 55.2238 6.12112L55.1573 7.73383C55.0354 7.70058 54.9135 7.67284 54.7916 7.65069C54.6697 7.62855 54.5477 7.61744 54.4258 7.61744C53.6943 7.61744 53.1346 7.82249 52.7466 8.23259C52.3588 8.6427 52.1647 9.28 52.1647 10.1446V14.1015H50.6685V6.22087Z" fill="#1A1C1B"/>
<path d="M45.3814 7.51781H43.6855V6.221H45.3814V4.45866C45.3814 3.40569 45.5808 2.62428 45.9799 2.11442C46.3899 1.59348 47.0882 1.33301 48.0747 1.33301C48.2409 1.33301 48.4127 1.33856 48.5901 1.34964C48.7785 1.36072 48.978 1.39397 49.1886 1.44939L49.0223 2.77945C48.8782 2.72404 48.7397 2.68524 48.6067 2.66307C48.4737 2.64091 48.3296 2.62983 48.1744 2.62983C47.8973 2.62983 47.6756 2.67416 47.5094 2.76283C47.3432 2.84042 47.2101 2.9568 47.1104 3.11197C47.0217 3.26714 46.9608 3.45557 46.9275 3.67725C46.9054 3.88784 46.8943 4.13169 46.8943 4.40879V6.221H48.6732V7.51781H46.8777V14.1017H45.3814V7.51781Z" fill="#1A1C1B"/>
<path d="M42.2004 14.1019H40.7041V12.9712H40.6708C40.3827 13.3925 39.9837 13.7194 39.4738 13.9522C38.975 14.1849 38.4596 14.3013 37.9276 14.3013C37.3181 14.3013 36.7639 14.196 36.2651 13.9855C35.7774 13.7748 35.3563 13.4811 35.0016 13.1043C34.658 12.7274 34.3919 12.2896 34.2035 11.7908C34.0151 11.292 33.9209 10.7489 33.9209 10.1615C33.9209 9.57408 34.0151 9.03096 34.2035 8.53219C34.3919 8.02232 34.658 7.58448 35.0016 7.21874C35.3563 6.84189 35.7774 6.54817 36.2651 6.33757C36.7639 6.12698 37.3181 6.02168 37.9276 6.02168C38.4929 6.02168 39.0249 6.14361 39.5237 6.38745C40.0224 6.62021 40.4049 6.94164 40.6708 7.35175H40.7041V1.53271H42.2004V14.1019ZM38.1105 12.9048C38.5095 12.9048 38.8697 12.8383 39.1912 12.7053C39.5126 12.5611 39.7842 12.3727 40.0058 12.14C40.2275 11.8962 40.3993 11.608 40.5212 11.2754C40.6432 10.9318 40.7041 10.5605 40.7041 10.1615C40.7041 9.76251 40.6432 9.39669 40.5212 9.06421C40.3993 8.72062 40.2275 8.43243 40.0058 8.19964C39.7842 7.95581 39.5126 7.76739 39.1912 7.63436C38.8697 7.4903 38.5095 7.41825 38.1105 7.41825C37.7115 7.41825 37.3513 7.4903 37.0299 7.63436C36.7084 7.76739 36.4369 7.95581 36.2152 8.19964C35.9936 8.43243 35.8218 8.72062 35.6999 9.06421C35.5779 9.39669 35.5169 9.76251 35.5169 10.1615C35.5169 10.5605 35.5779 10.9318 35.6999 11.2754C35.8218 11.608 35.9936 11.8962 36.2152 12.14C36.4369 12.3727 36.7084 12.5611 37.0299 12.7053C37.3513 12.8383 37.7115 12.9048 38.1105 12.9048Z" fill="#1A1C1B"/>
<path d="M25.3131 10.1612C25.3131 10.5602 25.374 10.9315 25.4959 11.2751C25.6178 11.6076 25.7896 11.8958 26.0113 12.1397C26.233 12.3724 26.5046 12.5608 26.826 12.705C27.1475 12.8379 27.5077 12.9044 27.9067 12.9044C28.3057 12.9044 28.6659 12.8379 28.9873 12.705C29.3087 12.5608 29.5803 12.3724 29.8019 12.1397C30.0236 11.8958 30.1954 11.6076 30.3173 11.2751C30.4393 10.9315 30.5002 10.5602 30.5002 10.1612C30.5002 9.76221 30.4393 9.3964 30.3173 9.06391C30.1954 8.72032 30.0236 8.43213 29.8019 8.19934C29.5803 7.95551 29.3087 7.76709 28.9873 7.63407C28.6659 7.48998 28.3057 7.41793 27.9067 7.41793C27.5077 7.41793 27.1475 7.48998 26.826 7.63407C26.5046 7.76709 26.233 7.95551 26.0113 8.19934C25.7896 8.43213 25.6178 8.72032 25.4959 9.06391C25.374 9.3964 25.3131 9.76221 25.3131 10.1612ZM23.717 10.1612C23.717 9.58482 23.8223 9.04729 24.0329 8.54852C24.2546 8.04969 24.5538 7.61192 24.9307 7.23505C25.3075 6.8582 25.7509 6.56448 26.2607 6.35388C26.7706 6.1322 27.3193 6.02136 27.9067 6.02136C28.4941 6.02136 29.0427 6.1322 29.5526 6.35388C30.0624 6.56448 30.5058 6.8582 30.8826 7.23505C31.2595 7.61192 31.5532 8.04969 31.7637 8.54852C31.9854 9.04729 32.0963 9.58482 32.0963 10.1612C32.0963 10.7376 31.9854 11.2806 31.7637 11.7905C31.5532 12.2893 31.2595 12.7271 30.8826 13.104C30.5058 13.4697 30.0624 13.7634 29.5526 13.9851C29.0427 14.1957 28.4941 14.301 27.9067 14.301C27.3193 14.301 26.7706 14.1957 26.2607 13.9851C25.7509 13.7634 25.3075 13.4697 24.9307 13.104C24.5538 12.7271 24.2546 12.2893 24.0329 11.7905C23.8223 11.2806 23.717 10.7376 23.717 10.1612Z" fill="#1A1C1B"/>
<path d="M15.109 10.1612C15.109 10.5602 15.1699 10.9315 15.2918 11.2751C15.4137 11.6076 15.5855 11.8958 15.8072 12.1397C16.0289 12.3724 16.3005 12.5608 16.6219 12.705C16.9433 12.8379 17.3035 12.9044 17.7026 12.9044C18.1016 12.9044 18.4618 12.8379 18.7832 12.705C19.1046 12.5608 19.3762 12.3724 19.5978 12.1397C19.8195 11.8958 19.9913 11.6076 20.1132 11.2751C20.2351 10.9315 20.2961 10.5602 20.2961 10.1612C20.2961 9.76221 20.2351 9.3964 20.1132 9.06391C19.9913 8.72032 19.8195 8.43213 19.5978 8.19934C19.3762 7.95551 19.1046 7.76709 18.7832 7.63407C18.4618 7.48998 18.1016 7.41793 17.7026 7.41793C17.3035 7.41793 16.9433 7.48998 16.6219 7.63407C16.3005 7.76709 16.0289 7.95551 15.8072 8.19934C15.5855 8.43213 15.4137 8.72032 15.2918 9.06391C15.1699 9.3964 15.109 9.76221 15.109 10.1612ZM13.5129 10.1612C13.5129 9.58482 13.6182 9.04729 13.8288 8.54852C14.0505 8.04969 14.3497 7.61192 14.7265 7.23505C15.1034 6.8582 15.5468 6.56448 16.0566 6.35388C16.5664 6.1322 17.1151 6.02136 17.7026 6.02136C18.29 6.02136 18.8386 6.1322 19.3485 6.35388C19.8583 6.56448 20.3017 6.8582 20.6785 7.23505C21.0554 7.61192 21.3491 8.04969 21.5596 8.54852C21.7813 9.04729 21.8922 9.58482 21.8922 10.1612C21.8922 10.7376 21.7813 11.2806 21.5596 11.7905C21.3491 12.2893 21.0554 12.7271 20.6785 13.104C20.3017 13.4697 19.8583 13.7634 19.3485 13.9851C18.8386 14.1957 18.29 14.301 17.7026 14.301C17.1151 14.301 16.5664 14.1957 16.0566 13.9851C15.5468 13.7634 15.1034 13.4697 14.7265 13.104C14.3497 12.7271 14.0505 12.2893 13.8288 11.7905C13.6182 11.2806 13.5129 10.7376 13.5129 10.1612Z" fill="#1A1C1B"/>
<path d="M0 6.2207H1.67918L3.45811 12.1062H3.49136L5.37004 6.2207H6.94947L8.94453 12.1062H8.97778L10.6736 6.2207H12.253L9.70934 14.1013H8.19635L6.11819 8.21582H6.08494L4.20626 14.1013H2.59358L0 6.2207Z" fill="#1A1C1B"/>
<path d="M78.2781 0.346558L75.8542 5.42658H77.124L78.7399 1.84747L80.3566 5.42658H81.742L79.2025 0.346558H78.2781Z" fill="#39D6E3" stroke="#60636A" stroke-width="0.23091"/>
</g>
<defs>
<clipPath id="clip0_6468_9593">
<rect width="84.6512" height="18.1395" fill="white"/>
</clipPath>
</defs>
</svg>
