<svg width="64" height="64" viewBox="0 0 64 64" fill="none" xmlns="http://www.w3.org/2000/svg">
<g clip-path="url(#clip0_18605_14711)">
<path fill-rule="evenodd" clip-rule="evenodd" d="M27.76 19.0299C27.76 16.2899 30.04 15.2299 33.724 15.2299C39.8212 15.3616 45.8042 16.9098 51.2 19.7519V3.2119C45.6361 1.02533 39.7018 -0.0646841 33.724 0.00189974C19.524 0.00189974 10 7.4399 10 19.8599C10 39.2919 36.684 36.1359 36.684 44.5119C36.684 47.7879 33.884 48.8039 29.944 48.8039C24.134 48.8039 16.63 46.3999 10.744 43.1999V59.9559C16.804 62.5927 23.3373 63.9686 29.946 63.9999C44.54 63.9999 54.6 56.7899 54.6 44.1539C54.6 23.1819 27.76 26.9279 27.76 19.0339V19.0299Z" fill="#6772E5"/>
</g>
<defs>
<clipPath id="clip0_18605_14711">
<rect width="64" height="64" fill="white"/>
</clipPath>
</defs>
</svg>
